<svg xmlns="http://www.w3.org/2000/svg" viewBox="0 0 32 32" fill="none">
  <rect width="32" height="32" rx="8" fill="#09090b"/>
  <!-- Sleek White braces -->
  <path d="M12 8C10.5 8 9 9.5 9 11V13C9 14.5 8 15 7 16C8 17 9 17.5 9 19V21C9 22.5 10.5 24 12 24" stroke="#ffffff" stroke-width="2" stroke-linecap="round" stroke-linejoin="round"/>
  <path d="M20 8C21.5 8 23 9.5 23 11V13C23 14.5 24 15 25 16C24 17 23 17.5 23 19V21C23 22.5 21.5 24 20 24" stroke="#ffffff" stroke-width="2" stroke-linecap="round" stroke-linejoin="round"/>
  <!-- Glowing electric blue dot -->
  <circle cx="16" cy="16" r="2.5" fill="#0070f3"/>
</svg>
